<?xml version="1.0" encoding="UTF-8" standalone="no"?>
<!DOCTYPE svg PUBLIC "-//W3C//DTD SVG 1.1//EN" "http://www.w3.org/Graphics/SVG/1.1/DTD/svg11.dtd">
<svg width="100%" height="100%" viewBox="0 0 68 97" version="1.1" xmlns="http://www.w3.org/2000/svg" xmlns:xlink="http://www.w3.org/1999/xlink" xml:space="preserve" xmlns:serif="http://www.serif.com/" style="fill-rule:evenodd;clip-rule:evenodd;stroke-linejoin:round;stroke-miterlimit:2;">
    <g transform="matrix(1,0,0,1,-746.088,-1298.84)">
        <g transform="matrix(1,0,0,1,538.931,-6.70984)">
            <g id="not-selected" serif:id="not selected">
                <path d="M274.653,1306.7L274.856,1402.26L242.226,1382.08L208.595,1402.52C208.595,1402.52 205.611,1338.5 208.241,1322.53C209.464,1315.1 217.05,1308.47 224.373,1306.73C235.441,1304.09 274.653,1306.7 274.653,1306.7ZM258.685,1321.76L258.795,1373.51C258.795,1373.51 250.641,1368.47 250.641,1368.47C245.522,1365.3 239.058,1365.28 233.915,1368.41L223.515,1374.73C222.952,1356.24 222.632,1333.61 224.028,1325.13C224.296,1323.5 226.477,1322.67 228.082,1322.29C233.781,1320.93 247.723,1321.24 258.685,1321.76L258.685,1321.76Z"/>
            </g>
        </g>
    </g>
</svg>
