<svg width="1024" height="1024" viewBox="0 0 1024 1024" fill="none" xmlns="http://www.w3.org/2000/svg">
<rect width="1024" height="1024" fill="#1E1E1E"/>
<path d="M327.812 434H287.656L287.969 396.188H327.812C338.854 396.188 347.448 394.208 353.594 390.25C359.74 386.292 364.062 380.042 366.562 371.5C369.167 362.958 370.469 351.76 370.469 337.906V302.438C370.469 291.917 369.792 283.01 368.438 275.719C367.083 268.323 364.792 262.385 361.562 257.906C358.333 253.323 354.01 249.938 348.594 247.75C343.177 245.562 336.458 244.469 328.438 244.469H286.875V206.5H328.438C341.562 206.5 353.49 208.635 364.219 212.906C374.948 217.177 384.167 223.427 391.875 231.656C399.583 239.781 405.521 249.833 409.688 261.812C413.854 273.792 415.938 287.438 415.938 302.75V337.906C415.938 353.323 413.854 366.969 409.688 378.844C405.521 390.719 399.583 400.771 391.875 409C384.271 417.125 375.052 423.323 364.219 427.594C353.385 431.865 341.25 434 327.812 434ZM314.219 206.5V434H268.438V206.5H314.219ZM727.344 396.188V434H628.438V396.188H727.344ZM642.656 206.5V434H596.875V206.5H642.656ZM714.062 298.688V335.406H628.438V298.688H714.062ZM727.031 206.5V244.469H628.438V206.5H727.031ZM376.875 733.219H422.344C421.719 750.302 418.281 764.729 412.031 776.5C405.781 788.167 396.875 797.021 385.312 803.062C373.854 809.104 360 812.125 343.75 812.125C331.146 812.125 319.948 810.042 310.156 805.875C300.365 801.604 292.031 795.354 285.156 787.125C278.281 778.896 273.073 768.74 269.531 756.656C266.094 744.469 264.375 730.458 264.375 714.625V676.031C264.375 660.198 266.198 646.188 269.844 634C273.594 621.812 278.906 611.604 285.781 603.375C292.76 595.042 301.146 588.792 310.938 584.625C320.833 580.354 331.979 578.219 344.375 578.219C360.938 578.219 374.792 581.344 385.938 587.594C397.083 593.844 405.677 602.958 411.719 614.938C417.865 626.812 421.562 641.344 422.812 658.531H377.188C376.875 647.698 375.625 639.208 373.438 633.062C371.354 626.812 368.021 622.438 363.438 619.938C358.854 617.333 352.5 616.031 344.375 616.031C338.333 616.031 333.125 617.125 328.75 619.312C324.375 621.396 320.781 624.781 317.969 629.469C315.156 634.156 313.073 640.302 311.719 647.906C310.469 655.51 309.844 664.781 309.844 675.719V714.625C309.844 725.354 310.417 734.521 311.562 742.125C312.708 749.625 314.531 755.771 317.031 760.562C319.531 765.354 322.917 768.844 327.188 771.031C331.562 773.219 337.083 774.312 343.75 774.312C351.458 774.312 357.656 773.167 362.344 770.875C367.135 768.583 370.677 764.469 372.969 758.531C375.26 752.594 376.562 744.156 376.875 733.219ZM758.281 677.594V715.562C758.281 731.604 756.302 745.667 752.344 757.75C748.49 769.729 742.969 779.781 735.781 787.906C728.698 795.927 720.104 801.969 710 806.031C700 810.094 688.906 812.125 676.719 812.125C664.531 812.125 653.385 810.094 643.281 806.031C633.281 801.969 624.635 795.927 617.344 787.906C610.156 779.781 604.583 769.729 600.625 757.75C596.667 745.667 594.688 731.604 594.688 715.562V677.594C594.688 661.135 596.615 646.76 600.469 634.469C604.323 622.073 609.896 611.76 617.188 603.531C624.479 595.198 633.125 588.948 643.125 584.781C653.125 580.51 664.219 578.375 676.406 578.375C688.594 578.375 699.688 580.51 709.688 584.781C719.688 588.948 728.333 595.198 735.625 603.531C742.917 611.76 748.49 622.073 752.344 634.469C756.302 646.76 758.281 661.135 758.281 677.594ZM712.812 715.562V677.281C712.812 666.448 712.031 657.229 710.469 649.625C708.906 641.917 706.562 635.615 703.438 630.719C700.312 625.823 696.51 622.229 692.031 619.938C687.552 617.646 682.344 616.5 676.406 616.5C670.469 616.5 665.208 617.646 660.625 619.938C656.146 622.229 652.344 625.823 649.219 630.719C646.198 635.615 643.906 641.917 642.344 649.625C640.885 657.229 640.156 666.448 640.156 677.281V715.562C640.156 725.979 640.938 734.885 642.5 742.281C644.062 749.677 646.406 755.719 649.531 760.406C652.656 765.094 656.458 768.583 660.938 770.875C665.521 773.062 670.781 774.156 676.719 774.156C682.552 774.156 687.708 773.062 692.188 770.875C696.771 768.583 700.573 765.094 703.594 760.406C706.615 755.719 708.906 749.677 710.469 742.281C712.031 734.885 712.812 725.979 712.812 715.562Z" fill="#F7F7F9"/>
</svg>
