<?xml version="1.0" encoding="UTF-8" standalone="no"?>
<!DOCTYPE svg PUBLIC "-//W3C//DTD SVG 1.1//EN" "http://www.w3.org/Graphics/SVG/1.1/DTD/svg11.dtd">
<svg width="100%" height="100%" viewBox="0 0 86 86" version="1.1" xmlns="http://www.w3.org/2000/svg" xmlns:xlink="http://www.w3.org/1999/xlink" xml:space="preserve" xmlns:serif="http://www.serif.com/" style="fill-rule:evenodd;clip-rule:evenodd;stroke-linejoin:round;stroke-miterlimit:2;">
    <g transform="matrix(1,0,0,1,-728.237,-1475.86)">
        <g transform="matrix(1,0,0,1,55.1247,14.6222)">
            <g id="Layer1">
                <path d="M715.887,1461.24C739.495,1461.24 758.662,1480.4 758.662,1504.01C758.662,1527.62 739.495,1546.78 715.887,1546.78C692.279,1546.78 673.112,1527.62 673.112,1504.01C673.112,1480.4 692.279,1461.24 715.887,1461.24ZM715.887,1477.24C730.664,1477.24 742.662,1489.23 742.662,1504.01C742.662,1518.79 730.664,1530.78 715.887,1530.78C701.11,1530.78 689.112,1518.79 689.112,1504.01C689.112,1489.23 701.11,1477.24 715.887,1477.24Z"/>
            </g>
        </g>
    </g>
</svg>
