<?xml version="1.0" encoding="UTF-8" standalone="no"?>
<!DOCTYPE svg PUBLIC "-//W3C//DTD SVG 1.1//EN" "http://www.w3.org/Graphics/SVG/1.1/DTD/svg11.dtd">
<svg width="100%" height="100%" viewBox="0 0 106 105" version="1.1" xmlns="http://www.w3.org/2000/svg" xmlns:xlink="http://www.w3.org/1999/xlink" xml:space="preserve" xmlns:serif="http://www.serif.com/" style="fill-rule:evenodd;clip-rule:evenodd;stroke-linejoin:round;stroke-miterlimit:2;">
    <g transform="matrix(1,0,0,1,-751.152,-1289.79)">
        <g id="Layer2" transform="matrix(1,0,0,1,400.397,-6.23116)">
            <g transform="matrix(1,0,0,1,-68.694,0)">
                <path d="M420.199,1358.72C420.199,1358.72 418.48,1383 420.248,1389.95C421.471,1394.76 425.873,1399.91 430.807,1400.45L516.356,1400.52C520.61,1400.1 524.47,1394.71 525.146,1391.18C525.185,1391.16 525.112,1368.89 525.112,1368.89C524.898,1363.32 521.994,1358.65 517.826,1358.62L509.306,1358.73L509.209,1384.7L435.954,1384.63L435.815,1367.65C435.68,1363.16 432.824,1358.75 428.688,1358.71L420.199,1358.72Z" style="fill:rgb(195,199,195);"/>
            </g>
            <g transform="matrix(1,0,0,1,-68.694,0)">
                <path d="M457.107,1332.51L456.933,1368.79L469.932,1368.81C477.33,1368.77 487.81,1358.38 488.147,1350.11L488.445,1332.43L505.962,1332.14L472.297,1296.02L438.886,1332.4L457.107,1332.51Z" style="fill:rgb(195,199,195);"/>
            </g>
        </g>
    </g>
</svg>
